<svg width="32" height="32" viewBox="0 0 32 32" fill="none" xmlns="http://www.w3.org/2000/svg">
<path d="M15.9999 11.8344C13.7062 11.8344 11.8343 13.7062 11.8343 16C11.8343 18.2937 13.7062 20.1656 15.9999 20.1656C18.2937 20.1656 20.1656 18.2937 20.1656 16C20.1656 13.7062 18.2937 11.8344 15.9999 11.8344ZM28.4937 16C28.4937 14.275 28.5093 12.5656 28.4124 10.8437C28.3156 8.84373 27.8593 7.06873 26.3968 5.60623C24.9312 4.1406 23.1593 3.68748 21.1593 3.5906C19.4343 3.49373 17.7249 3.50935 16.0031 3.50935C14.2781 3.50935 12.5687 3.49373 10.8468 3.5906C8.84681 3.68748 7.07181 4.14373 5.60931 5.60623C4.14368 7.07185 3.69056 8.84373 3.59368 10.8437C3.49681 12.5687 3.51243 14.2781 3.51243 16C3.51243 17.7219 3.49681 19.4344 3.59368 21.1562C3.69056 23.1562 4.14681 24.9312 5.60931 26.3937C7.07493 27.8594 8.84681 28.3125 10.8468 28.4093C12.5718 28.5062 14.2812 28.4906 16.0031 28.4906C17.7281 28.4906 19.4374 28.5062 21.1593 28.4093C23.1593 28.3125 24.9343 27.8562 26.3968 26.3937C27.8624 24.9281 28.3156 23.1562 28.4124 21.1562C28.5124 19.4344 28.4937 17.725 28.4937 16ZM15.9999 22.4093C12.4531 22.4093 9.59056 19.5469 9.59056 16C9.59056 12.4531 12.4531 9.5906 15.9999 9.5906C19.5468 9.5906 22.4093 12.4531 22.4093 16C22.4093 19.5469 19.5468 22.4093 15.9999 22.4093ZM22.6718 10.825C21.8437 10.825 21.1749 10.1562 21.1749 9.3281C21.1749 8.49998 21.8437 7.83123 22.6718 7.83123C23.4999 7.83123 24.1687 8.49998 24.1687 9.3281C24.1689 9.52474 24.1304 9.7195 24.0552 9.90122C23.9801 10.0829 23.8699 10.2481 23.7308 10.3871C23.5918 10.5261 23.4267 10.6364 23.2449 10.7115C23.0632 10.7867 22.8685 10.8252 22.6718 10.825Z" fill="white"/>
</svg>
