<svg width="14" height="14" viewBox="0 0 14 14" fill="none" xmlns="http://www.w3.org/2000/svg">
<g id="Iconly/Bold/Star">
<g id="Star">
<path id="Star_2" d="M10.4523 8.35337C10.3012 8.49979 10.2318 8.71154 10.2662 8.91921L10.7848 11.7892C10.8286 12.0325 10.7259 12.2786 10.5223 12.4192C10.3228 12.565 10.0574 12.5825 9.8398 12.4659L7.25622 11.1184C7.16639 11.0705 7.06664 11.0449 6.96455 11.042H6.80647C6.75164 11.0501 6.69797 11.0676 6.64897 11.0945L4.0648 12.4484C3.93705 12.5125 3.79239 12.5353 3.65064 12.5125C3.3053 12.4472 3.07489 12.1182 3.13147 11.7711L3.65064 8.90112C3.68505 8.69171 3.61564 8.47879 3.46455 8.33004L1.35814 6.28837C1.18197 6.11746 1.12072 5.86079 1.20122 5.62921C1.27939 5.39821 1.47889 5.22962 1.7198 5.19171L4.61897 4.77112C4.83947 4.74837 5.03314 4.61421 5.1323 4.41587L6.4098 1.79671C6.44014 1.73837 6.47922 1.68471 6.52647 1.63921L6.57897 1.59837C6.60639 1.56804 6.63789 1.54296 6.67288 1.52254L6.73647 1.49921L6.83564 1.45837H7.08122C7.30055 1.48112 7.49364 1.61237 7.59455 1.80837L8.88897 4.41587C8.9823 4.60662 9.16372 4.73904 9.37314 4.77112L12.2723 5.19171C12.5173 5.22671 12.7221 5.39587 12.8031 5.62921C12.8796 5.86312 12.8136 6.11979 12.634 6.28837L10.4523 8.35337Z" fill="#FFC107"/>
</g>
</g>
</svg>
