<svg width="32" height="32" viewBox="0 0 32 32" fill="none" xmlns="http://www.w3.org/2000/svg">
<path d="M31.524 6.58244C30.4107 7.07578 29.2147 7.40911 27.9574 7.55978C29.2547 6.7835 30.2253 5.56173 30.688 4.12244C29.4692 4.84643 28.1352 5.35604 26.744 5.62911C25.8085 4.63026 24.5694 3.96821 23.2191 3.74574C21.8688 3.52327 20.4828 3.75283 19.2763 4.39878C18.0699 5.04473 17.1104 6.07093 16.5469 7.31805C15.9834 8.56517 15.8474 9.96344 16.16 11.2958C13.6903 11.1718 11.2742 10.5298 9.06859 9.41165C6.86299 8.29346 4.91715 6.72399 3.35736 4.80511C2.82403 5.72511 2.51736 6.79178 2.51736 7.92778C2.51676 8.95044 2.7686 9.95743 3.25053 10.8594C3.73246 11.7614 4.42957 12.5305 5.28003 13.0984C4.29373 13.0671 3.32919 12.8006 2.46669 12.3211V12.4011C2.46659 13.8354 2.96274 15.2256 3.87094 16.3358C4.77914 17.4459 6.04345 18.2077 7.44936 18.4918C6.5344 18.7394 5.57514 18.7759 4.64403 18.5984C5.04069 19.8326 5.81335 20.9118 6.85385 21.685C7.89434 22.4582 9.15058 22.8867 10.4467 22.9104C8.24647 24.6377 5.52921 25.5746 2.73203 25.5704C2.23653 25.5706 1.74146 25.5416 1.24936 25.4838C4.08866 27.3093 7.39381 28.2782 10.7694 28.2744C22.196 28.2744 28.4427 18.8104 28.4427 10.6024C28.4427 10.3358 28.436 10.0664 28.424 9.79978C29.6391 8.92108 30.6879 7.83297 31.5214 6.58644L31.524 6.58244Z" fill="white"/>
</svg>
